<?xml version="1.0" encoding="UTF-8"?>
<svg width="24px" height="24px" viewBox="0 0 24 24" version="1.1" xmlns="http://www.w3.org/2000/svg" xmlns:xlink="http://www.w3.org/1999/xlink">
    <!-- Generator: Sketch 63.1 (92452) - https://sketch.com -->
    <title>Icon/Close</title>
    <desc>Created with Sketch.</desc>
    <defs>
        <path d="M8,0 C12.4182944,0 16,3.5817431 16,8 C16,12.4182569 12.4182569,16 8,16 C3.5817431,16 0,12.4182569 0,8 C0,3.5817431 3.5817431,0 8,0 Z M8,2 C4.68629808,2 2,4.68629808 2,8 C2,11.3137019 4.68629808,14 8,14 C11.3137363,14 14,11.3137363 14,8 C13.9959478,4.68794643 11.3120192,2.00401786 8,2 Z M10.4754146,5 C10.5633659,5 10.6457561,5.03390464 10.707561,5.09581111 L10.707561,5.09581111 L10.9041463,5.29236048 C10.9659512,5.35402303 11,5.4365162 11,5.52442435 C10.9999024,5.61228373 10.9658537,5.69467933 10.9041463,5.75643944 L10.9041463,5.75643944 L8.66082927,8 L10.9040976,10.2435118 C10.9658049,10.3053207 10.9998537,10.3877163 10.9998537,10.4755756 C10.9998537,10.563435 10.9658049,10.6458794 10.9040976,10.7076395 L10.9040976,10.7076395 L10.7075122,10.9041889 C10.6457073,10.9660466 10.5633171,11 10.4754634,11 L10.4754634,11 L10.4107645,10.9937283 C10.3476524,10.9812793 10.2897195,10.9505822 10.2433659,10.9041889 L10.2433659,10.9041889 L8.00004878,8.6607259 L5.75663415,10.9041889 C5.69492683,10.9660466 5.6124878,11 5.52458537,11 C5.43682927,11 5.35434146,10.9660466 5.29263415,10.9041889 L5.29263415,10.9041889 L5.096,10.7076395 C5.0342439,10.6458306 5.0002439,10.563435 5.0002439,10.4755756 C5.0002439,10.3877163 5.0342439,10.3053207 5.096,10.243463 L5.096,10.243463 L7.33936585,8 L5.096,5.75643944 C4.968,5.62857747 4.968,5.4203688 5.096,5.29236048 L5.096,5.29236048 L5.29268293,5.09581111 C5.35439024,5.03390464 5.43682927,5 5.52463415,5 C5.61253659,5 5.69497561,5.03390464 5.75668293,5.09581111 L5.75668293,5.09581111 L8.00009756,7.33922532 L10.2434146,5.09581111 C10.3052195,5.03390464 10.3876098,5 10.4754146,5 Z" id="path-1"></path>
    </defs>
    <g id="Icon/Close" stroke="none" stroke-width="1" fill="none" fill-rule="evenodd">
        <g id="tick-copy" transform="translate(4.000000, 4.000000)">
            <g id="UI/Color/Flat/Icon-Color">
                <mask id="mask-2" fill="white">
                    <use xlink:href="#path-1"></use>
                </mask>
                <use id="Mask" fill="#BF1010" fill-rule="nonzero" xlink:href="#path-1"></use>
                <g mask="url(#mask-2)" fill="#BF1010" id="Base">
                    <g transform="translate(-4.000000, -5.000000)">
                        <rect x="0" y="0" width="25" height="25"></rect>
                    </g>
                </g>
            </g>
        </g>
    </g>
</svg>