<?xml version="1.0" encoding="UTF-8"?>
<svg width="24px" height="24px" viewBox="0 0 24 24" version="1.1" xmlns="http://www.w3.org/2000/svg" xmlns:xlink="http://www.w3.org/1999/xlink">
    <!-- Generator: Sketch 63.1 (92452) - https://sketch.com -->
    <title>Icon/Edit</title>
    <desc>Created with Sketch.</desc>
    <defs>
        <path d="M8.64576274,2.17274584 L11.6476801,4.96316674 L3.94401002,12.1234647 C3.90525624,12.1594881 3.85673076,12.1853961 3.80331943,12.1977824 L3.80331943,12.1977824 L0.376332194,12.9915361 C0.352124988,12.9972131 0.327251515,13 0.302933246,13 C0.223538,13 0.14591943,12.9706858 0.0889547415,12.9177345 C0.0136680816,12.8477521 -0.0166464855,12.7457717 0.00889325596,12.6498813 L0.00889325596,12.6498813 L0.862697433,9.46433837 C0.876022508,9.41530936 0.904005166,9.36968661 0.942758919,9.33355996 L0.942758919,9.33355996 L8.64576274,2.17274584 Z M10.5542466,0.399341206 C11.1266696,-0.13285566 12.125495,-0.133371748 12.6985843,0.399341206 L12.6985843,0.399341206 L13.5560529,1.19639789 C13.8423199,1.46249631 14,1.81653729 14,2.19308 C14,2.5696227 13.8423199,2.92366365 13.5560529,3.18965886 L13.5560529,3.18965886 L12.5057039,4.16600684 L9.50389758,1.37568919 Z" id="path-1"></path>
    </defs>
    <g id="Icon/Edit" stroke="none" stroke-width="1" fill="none" fill-rule="evenodd">
        <g id="pencil" transform="translate(5.000000, 5.000000)">
            <g id="UI/Color/Flat/Icon-Color">
                <mask id="mask-2" fill="white">
                    <use xlink:href="#path-1"></use>
                </mask>
                <use id="Mask" fill="#286ADD" fill-rule="nonzero" xlink:href="#path-1"></use>
                <g mask="url(#mask-2)" fill="#286ADD" id="Base">
                    <g transform="translate(-6.000000, -6.000000)">
                        <rect x="0" y="0" width="25" height="25"></rect>
                    </g>
                </g>
            </g>
        </g>
    </g>
</svg>