<?xml version="1.0" encoding="UTF-8"?>
<svg width="14px" height="16px" viewBox="0 0 14 16" version="1.1" xmlns="http://www.w3.org/2000/svg" xmlns:xlink="http://www.w3.org/1999/xlink">
    <!-- Generator: Sketch 63.1 (92452) - https://sketch.com -->
    <title>power</title>
    <desc>Created with Sketch.</desc>
    <g id="Facility-Manager--Portal" stroke="none" stroke-width="1" fill="none" fill-rule="evenodd">
        <g id="Facility-manager---Users" transform="translate(-1390.000000, -26.000000)" fill="#A8AAB7" fill-rule="nonzero">
            <g id="Group-2" transform="translate(1379.000000, 25.000000)">
                <g id="power" transform="translate(18.000000, 9.000000) scale(-1, 1) translate(-18.000000, -9.000000) translate(11.000000, 0.500000)">
                    <path d="M9.80368401,2.58233175 C9.80368401,2.58233175 8.9607728,2.19530302 8.9607728,3.09951282 C8.9607728,4.00372262 9.79588399,4.61049821 9.80647401,4.6085698 C11.2808861,5.59055878 12.2553475,7.28872233 12.2553475,9.21927453 C12.2553475,12.2112478 9.91486416,14.645421 7.00003,14.7198331 C4.08519584,14.645421 1.74471249,12.2112478 1.74471249,9.21927453 C1.74471249,7.28869172 2.71920388,5.59058939 4.19358599,4.6085698 C4.20417601,4.61049821 5.0392572,4.00369201 5.0392572,3.09951282 C5.0392572,2.19533363 4.19634599,2.58233175 4.19634599,2.58233175 C1.72170246,3.72572555 0,6.26709382 0,9.21927453 C0,13.1944 3.12159446,16.42519 7.00003,16.5 C10.8784655,16.4251593 14,13.1944 14,9.21927453 C14,6.26709382 12.2783275,3.72572555 9.80368401,2.58233175 Z" id="Path"></path>
                    <path d="M7.04998699,0.5 C6.24998087,0.5 6,1.0990465 6,1.33333217 L6,5 L6,8.66666783 C6,8.9009848 6.25001148,9.5 7.04998699,9.5 C7.84999311,9.5 8,8.9009535 8,8.66666783 L8,5 L8,1.33333217 C7.9999694,1.0990152 7.84999311,0.5 7.04998699,0.5 Z" id="Path"></path>
                </g>
            </g>
        </g>
    </g>
</svg>